<?xml version="1.0" standalone="no"?>
<!DOCTYPE svg PUBLIC "-//W3C//DTD SVG 20010904//EN"
 "http://www.w3.org/TR/2001/REC-SVG-20010904/DTD/svg10.dtd">
<svg version="1.0" xmlns="http://www.w3.org/2000/svg"
 width="75.000000pt" height="75.000000pt" viewBox="0 0 75.000000 75.000000"
 preserveAspectRatio="xMidYMid meet">
<metadata>
Created by potrace 1.14, written by Peter Selinger 2001-2017
</metadata>
<g transform="translate(0.000000,75.000000) scale(0.100000,-0.100000)"
fill="#000000" stroke="none">
<path d="M351 407 c-88 -177 -160 -329 -161 -337 -5 -30 0 -40 19 -40 10 0 23
6 28 13 14 18 280 628 288 660 5 17 3 27 -4 27 -6 0 -83 -145 -170 -323z"/>
<path d="M154 508 c-16 -12 -45 -36 -65 -52 -19 -17 -47 -41 -62 -53 -15 -13
-27 -29 -27 -37 0 -8 21 -28 47 -45 27 -17 66 -47 88 -66 46 -41 80 -43 80 -6
0 18 -15 37 -52 67 -28 23 -59 47 -69 52 -15 9 -10 18 44 79 34 38 62 73 62
76 0 13 -17 7 -46 -15z"/>
<path d="M550 522 c0 -4 28 -38 62 -76 54 -60 59 -69 44 -78 -10 -5 -41 -29
-69 -52 -54 -44 -70 -87 -35 -94 18 -4 191 123 196 144 2 7 -9 23 -24 36 -15
13 -44 37 -63 54 -79 67 -111 86 -111 66z"/>
</g>
</svg>
